<svg id="Layer_1" data-name="Layer 1" xmlns="http://www.w3.org/2000/svg" viewBox="0 0 713.908 193.174"><defs><style>.cls-1{fill:#e48357;}.cls-2{fill:#6f9078;}</style></defs><title>Design_large</title><path class="cls-1" d="M204.5,97.5a272.116,272.116,0,0,0,11.293,51.179,179.893,179.893,0,0,0,9.861,24.293,109.454,109.454,0,0,0,6.533,11.365,59.371,59.371,0,0,0,8.287,10.125c3.152,2.975,6.851,5.613,11.143,6.55a15.767,15.767,0,0,0,3.242.328,14.805,14.805,0,0,0,3.225-.442,13.089,13.089,0,0,0,5.533-3.326,40.627,40.627,0,0,0,7.437-10.708,114.465,114.465,0,0,0,5.2-12.029c3.045-8.2,5.507-16.6,7.761-25.053s4.255-16.97,6.161-25.508c3.8-17.078,7.176-34.249,10.688-51.392,1.76-8.57,3.547-17.137,5.506-25.666a258.534,258.534,0,0,1,6.891-25.336c.726-2.067,1.5-4.119,2.423-6.114a22.535,22.535,0,0,1,3.442-5.628,5.27,5.27,0,0,1,2.833-1.785,4.594,4.594,0,0,1,3.235.863,16.445,16.445,0,0,1,4.326,4.986,74.75,74.75,0,0,1,5.6,11.891C336.7,30.18,338.1,34.33,339.43,38.5c5.247,16.709,9.471,33.7,13.77,50.663,4.279,16.967,8.452,33.963,13.218,50.793,2.4,8.408,4.929,16.786,7.951,24.983a114.261,114.261,0,0,0,5.14,12.029,43.129,43.129,0,0,0,3.346,5.581,12.5,12.5,0,0,0,4.669,4.258,4.261,4.261,0,0,0,2.987.188,6.7,6.7,0,0,0,2.592-1.7,22.1,22.1,0,0,0,3.617-5.326,81.406,81.406,0,0,0,4.76-12.156c2.623-8.33,4.631-16.85,6.515-25.385,3.718-17.09,6.783-34.32,10.011-51.518,1.612-8.6,3.247-17.2,5.036-25.768,1.807-8.564,3.7-17.121,6.216-25.529a69.307,69.307,0,0,1,4.755-12.3,19.329,19.329,0,0,1,1.827-2.81,7.054,7.054,0,0,1,2.683-2.182,3.539,3.539,0,0,1,1.825-.223,4.237,4.237,0,0,1,1.677.665,9.782,9.782,0,0,1,2.423,2.4,32.294,32.294,0,0,1,3.266,5.782c.918,2,1.725,4.048,2.484,6.108,1.507,4.123,2.815,8.308,4.053,12.509,4.877,16.83,8.8,33.891,13.12,50.843,2.148,8.478,4.354,16.942,6.786,25.336a235.781,235.781,0,0,0,8.423,24.784,64.257,64.257,0,0,0,6.024,11.513,18.638,18.638,0,0,0,4.345,4.626,7.319,7.319,0,0,0,2.787,1.221,3.876,3.876,0,0,0,1.441.047,3.612,3.612,0,0,0,1.317-.554,13.156,13.156,0,0,0,3.777-4.95,49.836,49.836,0,0,0,2.479-6c1.429-4.106,2.56-8.325,3.6-12.562,2.058-8.486,3.718-17.073,5.324-25.669l4.7-25.822c1.6-8.605,3.242-17.208,5.256-25.742,1.014-4.265,2.118-8.515,3.481-12.7.69-2.09,1.439-4.166,2.341-6.193a22.342,22.342,0,0,1,3.473-5.757,6.305,6.305,0,0,1,2.975-1.981,4.714,4.714,0,0,1,3.6.6,14.942,14.942,0,0,1,4.565,5.027,71.712,71.712,0,0,1,5.566,11.994c3.074,8.232,5.522,16.652,7.912,25.074l6.979,25.3c1.183,4.208,2.394,8.407,3.7,12.572s2.692,8.3,4.393,12.289a32.338,32.338,0,0,0,3,5.668,6.725,6.725,0,0,0,2.09,2.065,1.749,1.749,0,0,0,2.225-.455,9.609,9.609,0,0,0,1.718-2.51,28.783,28.783,0,0,0,1.268-2.941c.75-2.019,1.367-4.1,1.931-6.2,2.207-8.42,3.712-17.045,5.215-25.653,1.483-8.617,2.854-17.259,4.391-25.882.773-4.311,1.582-8.619,2.531-12.906.477-2.144.989-4.283,1.583-6.408a41.6,41.6,0,0,1,2.215-6.3,8.624,8.624,0,0,1,2.037-2.936,2.44,2.44,0,0,1,2.147-.571,3.484,3.484,0,0,1,1.685,1.163,13.436,13.436,0,0,1,1.8,2.964c.48,1.019.891,2.053,1.273,3.093A126.661,126.661,0,0,1,613.4,67.743c2.075,8.526,3.782,17.117,5.461,25.707s3.249,17.2,5.088,25.73c.469,2.128.954,4.256,1.538,6.33a18.126,18.126,0,0,0,1.039,2.939c.082.192.279.4.2.332-.072-.094-.494-.034-.454,0a1.118,1.118,0,0,0,.088-.113,6.639,6.639,0,0,0,.605-1.307,59.933,59.933,0,0,0,1.724-6.228c.5-2.119.953-4.253,1.4-6.391,1.764-8.555,3.348-17.162,5.07-25.747.861-4.293,1.746-8.584,2.726-12.86A99.8,99.8,0,0,1,641.464,63.4c.21-.525.435-1.047.7-1.568a6.057,6.057,0,0,1,1.079-1.565,1.833,1.833,0,0,1,1.31-.576,1.467,1.467,0,0,1,.84.321,2.57,2.57,0,0,1,.427.43,7.356,7.356,0,0,1,.9,1.622A47.558,47.558,0,0,1,648.7,68.45c1.065,4.273,1.939,8.567,2.8,12.862,1.71,8.59,3.255,17.2,5.068,25.741.458,2.132.933,4.26,1.463,6.365a42.674,42.674,0,0,0,1.909,6.114,4.113,4.113,0,0,0,.662,1.115c.043.048.062.032-.019.009a.456.456,0,0,0-.327.057,2.052,2.052,0,0,0,.188-.33,14.64,14.64,0,0,0,.78-2.959c.38-2.109.631-4.274.86-6.436.871-8.672,1.355-17.414,2.039-26.145.345-4.367.7-8.735,1.278-13.11.148-1.094.313-2.188.521-3.287a17.244,17.244,0,0,1,.914-3.351,3.539,3.539,0,0,1,.569-.94,1.6,1.6,0,0,1,.752-.491,1.41,1.41,0,0,1,1.057.133,2.8,2.8,0,0,1,.874.824,7.722,7.722,0,0,1,.5.785,25.5,25.5,0,0,1,1.4,3.106c3.088,8.287,5.1,16.844,8.107,24.956a17.179,17.179,0,0,0,1.306,2.8,1.775,1.775,0,0,0,.306.379.443.443,0,0,0-.313-.043c-.187.045-.176.089-.149.05a4.453,4.453,0,0,0,.6-1.137,53.2,53.2,0,0,0,1.775-6.176c1.021-4.234,1.92-8.52,3-12.787a59.909,59.909,0,0,1,1.922-6.386,15.6,15.6,0,0,1,.707-1.594,4.738,4.738,0,0,1,1.246-1.623,1.944,1.944,0,0,1,.708-.334,1.68,1.68,0,0,1,.919.056,2.479,2.479,0,0,1,1.04.782,7.7,7.7,0,0,1,.965,1.6,62.633,62.633,0,0,1,2.288,6.27c.686,2.073,1.368,4.136,2.189,6.107a22.7,22.7,0,0,0,1.383,2.825,5.926,5.926,0,0,0,1.823,2.084,1.411,1.411,0,0,0,.939.2A1.3,1.3,0,0,0,703.5,86a7.99,7.99,0,0,0,1.112-2.661c.539-2.034.824-4.2,1.376-6.4a8.738,8.738,0,0,1,1.465-3.378,2.629,2.629,0,0,1,2.252-1,2.241,2.241,0,0,1,1.259.6,4.312,4.312,0,0,1,.678.812,16.764,16.764,0,0,1,1.462,3.171l1.124,3.076a24.789,24.789,0,0,0,1.268,2.888,5.815,5.815,0,0,0,1.73,2.152,1.725,1.725,0,0,0,1.994-.042,6.191,6.191,0,0,0,1.556-2.293c.869-1.911,1.611-4.049,2.75-6.041a16.13,16.13,0,0,1,2.02-2.837,13.1,13.1,0,0,1,1.269-1.235,4.672,4.672,0,0,1,.85-.6,1.719,1.719,0,0,1,.874-.214,1.5,1.5,0,0,1,1.011.471,4.15,4.15,0,0,1,.6.906l.381.694a9.486,9.486,0,0,0,.838,1.228,10.662,10.662,0,0,0,2.214,2.02,21.4,21.4,0,0,0,5.657,2.649,45.706,45.706,0,0,0,6.244,1.479,95.426,95.426,0,0,0,12.923,1.171c4.342.134,8.7.064,13.049-.111l.082,2c-4.39.171-8.788.237-13.192.1a97.111,97.111,0,0,1-13.2-1.214,47.514,47.514,0,0,1-6.513-1.553,23.3,23.3,0,0,1-6.175-2.915,12.607,12.607,0,0,1-2.61-2.395,11.333,11.333,0,0,1-1.008-1.48l-.409-.744a3.4,3.4,0,0,0-.281-.47.513.513,0,0,0,.3.113c.153,0,.14-.028.093,0a3.061,3.061,0,0,0-.48.353,11.163,11.163,0,0,0-1.081,1.051,14.229,14.229,0,0,0-1.779,2.5c-1.042,1.811-1.745,3.827-2.683,5.9a7.825,7.825,0,0,1-2.167,3.031,3.642,3.642,0,0,1-4.165.111,7.56,7.56,0,0,1-2.388-2.867,26.823,26.823,0,0,1-1.368-3.117l-1.124-3.088a15.373,15.373,0,0,0-1.262-2.785,1.361,1.361,0,0,0-.548-.568.747.747,0,0,0-.6.337,7.284,7.284,0,0,0-1.075,2.616c-.519,2.045-.807,4.226-1.389,6.423a9.569,9.569,0,0,1-1.452,3.335,3.18,3.18,0,0,1-1.91,1.23,3.292,3.292,0,0,1-2.213-.422,7.594,7.594,0,0,1-2.5-2.757,24.536,24.536,0,0,1-1.5-3.064c-.858-2.07-1.547-4.166-2.233-6.246a61.805,61.805,0,0,0-2.194-6.056,6.085,6.085,0,0,0-.711-1.21,1.076,1.076,0,0,0-.232-.221c.012.014.08.009.112,0s.014-.008-.025.021a3.262,3.262,0,0,0-.7.986,13.85,13.85,0,0,0-.623,1.4,58.353,58.353,0,0,0-1.861,6.173c-1.074,4.214-1.978,8.492-3.012,12.762a54.433,54.433,0,0,1-1.863,6.424,5.607,5.607,0,0,1-.978,1.721,1.555,1.555,0,0,1-.835.476,1.4,1.4,0,0,1-1.076-.273,3.233,3.233,0,0,1-.76-.856,18.466,18.466,0,0,1-1.477-3.136c-3.064-8.306-5.06-16.849-8.079-24.969a24.17,24.17,0,0,0-1.284-2.879,6.033,6.033,0,0,0-.378-.6,1.481,1.481,0,0,0-.289-.316.409.409,0,0,0,.268.014c.117-.036.116-.072.087-.031a1.986,1.986,0,0,0-.264.465,15.856,15.856,0,0,0-.8,2.971c-.2,1.051-.363,2.12-.51,3.193-.574,4.3-.933,8.656-1.282,13.008-.694,8.713-1.186,17.448-2.075,26.188-.234,2.186-.488,4.37-.886,6.567a15.768,15.768,0,0,1-.914,3.365,2.481,2.481,0,0,1-.743,1,1.322,1.322,0,0,1-1.1.206,1.653,1.653,0,0,1-.711-.414,5.359,5.359,0,0,1-1.05-1.661,43.606,43.606,0,0,1-2-6.4c-.535-2.137-1.012-4.281-1.469-6.426-1.812-8.582-3.346-17.2-5.042-25.771-.852-4.284-1.72-8.567-2.766-12.785a46.144,46.144,0,0,0-1.881-6.145,5.994,5.994,0,0,0-.673-1.247c-.1-.164-.272-.192-.051-.14.111-.009,0-.011-.125.124a4.7,4.7,0,0,0-.76,1.136c-.233.451-.443.933-.64,1.423a99.025,99.025,0,0,0-3.526,12.5c-.979,4.25-1.867,8.528-2.731,12.813-1.729,8.569-3.324,17.171-5.1,25.752-.448,2.145-.909,4.288-1.413,6.428a61.2,61.2,0,0,1-1.787,6.41,7.869,7.869,0,0,1-.789,1.653,1.916,1.916,0,0,1-.463.49,1.133,1.133,0,0,1-1.215.069,2.329,2.329,0,0,1-.792-.95A19.111,19.111,0,0,1,624,125.93c-.6-2.137-1.083-4.278-1.553-6.423-1.839-8.579-3.391-17.186-5.064-25.772s-3.363-17.163-5.416-25.643a125.3,125.3,0,0,0-3.613-12.526c-.371-1.013-.768-2.014-1.22-2.975a12.144,12.144,0,0,0-1.582-2.634,2.158,2.158,0,0,0-.947-.711,1.009,1.009,0,0,0-.887.291,7.458,7.458,0,0,0-1.646,2.434,40.276,40.276,0,0,0-2.136,6.067c-.586,2.087-1.1,4.2-1.572,6.33-.946,4.254-1.759,8.546-2.534,12.845-1.544,8.6-2.926,17.242-4.421,25.868-1.517,8.622-3.031,17.256-5.272,25.767-.573,2.125-1.2,4.24-1.977,6.322a30,30,0,0,1-1.334,3.079,10.847,10.847,0,0,1-1.99,2.867,3.691,3.691,0,0,1-1.713.983,3.027,3.027,0,0,1-2.031-.314,7.886,7.886,0,0,1-2.562-2.478,33.5,33.5,0,0,1-3.126-5.914c-1.73-4.067-3.11-8.238-4.426-12.421s-2.514-8.4-3.694-12.613l-6.949-25.31c-2.375-8.41-4.81-16.814-7.85-24.983a70.577,70.577,0,0,0-5.446-11.788,13.9,13.9,0,0,0-4.144-4.629,3.521,3.521,0,0,0-2.7-.483,5.151,5.151,0,0,0-2.395,1.628,21.26,21.26,0,0,0-3.274,5.438c-.879,1.97-1.621,4.013-2.3,6.076-1.352,4.134-2.455,8.358-3.47,12.6-2.015,8.5-3.669,17.085-5.274,25.68l-4.732,25.818c-1.618,8.6-3.29,17.2-5.367,25.72-1.05,4.256-2.191,8.5-3.643,12.656a50.981,50.981,0,0,1-2.541,6.12,14.027,14.027,0,0,1-4.141,5.344,4.656,4.656,0,0,1-1.691.7,4.911,4.911,0,0,1-1.819-.049,8.366,8.366,0,0,1-3.18-1.389,19.607,19.607,0,0,1-4.6-4.887,65.081,65.081,0,0,1-6.113-11.707,236.38,236.38,0,0,1-8.432-24.9c-2.428-8.416-4.625-16.891-6.764-25.377-4.3-16.964-8.2-34.03-13.051-50.825-1.229-4.192-2.529-8.364-4.021-12.46-.751-2.046-1.549-4.074-2.451-6.05a31.512,31.512,0,0,0-3.167-5.63,8.987,8.987,0,0,0-2.2-2.2,2.872,2.872,0,0,0-2.742-.371,6.258,6.258,0,0,0-2.342,1.927,18.443,18.443,0,0,0-1.747,2.683,68.65,68.65,0,0,0-4.7,12.138c-2.508,8.36-4.414,16.9-6.229,25.453-1.8,8.558-3.441,17.15-5.063,25.746-3.248,17.192-6.334,34.422-10.077,51.527-1.9,8.545-3.917,17.075-6.56,25.437a82.042,82.042,0,0,1-4.817,12.251,22.68,22.68,0,0,1-3.74,5.481,7.309,7.309,0,0,1-2.85,1.853,4.893,4.893,0,0,1-3.419-.212,13.046,13.046,0,0,1-4.925-4.472,43.448,43.448,0,0,1-3.39-5.666,115.045,115.045,0,0,1-5.155-12.1c-3.021-8.227-5.545-16.617-7.935-25.036-4.751-16.851-8.9-33.854-13.162-50.825-4.278-16.963-8.482-33.959-13.7-50.652-1.321-4.167-2.715-8.312-4.284-12.389a74.386,74.386,0,0,0-5.554-11.828,16.056,16.056,0,0,0-4.2-4.868,4.208,4.208,0,0,0-2.947-.806,4.891,4.891,0,0,0-2.612,1.66,22.215,22.215,0,0,0-3.382,5.523c-.915,1.978-1.691,4.02-2.417,6.078a258.3,258.3,0,0,0-6.909,25.289c-1.969,8.522-3.765,17.085-5.535,25.652-3.533,17.137-6.925,34.306-10.751,51.384-1.916,8.537-3.937,17.053-6.194,25.509s-4.738,16.857-7.8,25.062a114.268,114.268,0,0,1-5.224,12.042,40.784,40.784,0,0,1-7.482,10.743,13.245,13.245,0,0,1-5.6,3.356,15.016,15.016,0,0,1-3.261.442,15.782,15.782,0,0,1-3.273-.335c-4.331-.951-8.041-3.609-11.2-6.6A59.542,59.542,0,0,1,232.1,184.4a109.612,109.612,0,0,1-6.525-11.384,180.013,180.013,0,0,1-9.837-24.316A272.08,272.08,0,0,1,204.5,97.5Z" transform="translate(-127.498 -8.31)"/><path class="cls-2" d="M127.5,77.225h3.968c2.449,0,4.336.864,4.336,3.493,0,2.531-1.887,3.68-4.336,3.68h-1.879V89H127.5Zm3.752,5.5c1.614,0,2.492-.67,2.492-2.009,0-1.354-.878-1.822-2.492-1.822h-1.663v3.831Zm-.176,1.113,1.512-1.246L136.263,89h-2.348Z" transform="translate(-127.498 -8.31)"/><path class="cls-2" d="M137.2,84.585c0-2.874,2-4.646,4.077-4.646,2.391,0,3.651,1.729,3.651,4.2a5.355,5.355,0,0,1-.09,1.008h-5.614a2.515,2.515,0,0,0,2.607,2.463,3.774,3.774,0,0,0,2.053-.641l.706,1.289a5.491,5.491,0,0,1-3.032.958A4.27,4.27,0,0,1,137.2,84.585Zm5.935-.85c0-1.361-.605-2.189-1.815-2.189a2.219,2.219,0,0,0-2.117,2.189Z" transform="translate(-127.498 -8.31)"/><path class="cls-2" d="M152.354,89.587l.08-1.473a3.627,3.627,0,0,1-2.435,1.1c-2.2,0-3.63-1.714-3.63-4.631,0-2.881,1.808-4.646,3.745-4.646a3.264,3.264,0,0,1,2.442,1.074h.057l.18-.857h1.635V92.5h-2.074Zm0-3.079V82.389a2.609,2.609,0,0,0-1.8-.735c-1.124,0-2.053,1.066-2.053,2.909,0,1.923.735,2.939,2.009,2.939A2.338,2.338,0,0,0,152.354,86.508Z" transform="translate(-127.498 -8.31)"/><path class="cls-2" d="M156.96,85.7V80.156h2.075v5.279c0,1.455.417,2,1.375,2,.778,0,1.289-.36,1.959-1.224V80.156h2.074V89h-1.7l-.159-1.3h-.058a3.6,3.6,0,0,1-2.844,1.52C157.789,89.216,156.96,87.934,156.96,85.7Z" transform="translate(-127.498 -8.31)"/><path class="cls-2" d="M166.839,77.434a1.287,1.287,0,1,1,1.282,1.173A1.185,1.185,0,0,1,166.839,77.434Zm.237,2.722h2.074V89h-2.074Z" transform="translate(-127.498 -8.31)"/><path class="cls-2" d="M171.785,80.156h1.7l.159,1.577h.058a3.019,3.019,0,0,1,2.513-1.794,2.242,2.242,0,0,1,1,.181l-.36,1.8a3.009,3.009,0,0,0-.907-.144c-.706,0-1.556.483-2.089,1.829V89h-2.074Z" transform="translate(-127.498 -8.31)"/><path class="cls-2" d="M177.739,84.585c0-2.874,2-4.646,4.076-4.646,2.392,0,3.652,1.729,3.652,4.2a5.355,5.355,0,0,1-.09,1.008h-5.614a2.515,2.515,0,0,0,2.607,2.463,3.779,3.779,0,0,0,2.053-.641l.7,1.289a5.486,5.486,0,0,1-3.032.958A4.27,4.27,0,0,1,177.739,84.585Zm5.935-.85c0-1.361-.606-2.189-1.816-2.189a2.219,2.219,0,0,0-2.117,2.189Z" transform="translate(-127.498 -8.31)"/><path class="cls-2" d="M187.445,80.156h1.7l.158,1.206h.058a3.807,3.807,0,0,1,2.715-1.423,2.386,2.386,0,0,1,2.442,1.585,4,4,0,0,1,2.844-1.585c1.866,0,2.73,1.283,2.73,3.515V89h-2.074V83.721c0-1.455-.433-2-1.362-2a2.729,2.729,0,0,0-1.85,1.1V89h-2.075V83.721c0-1.455-.432-2-1.361-2a2.761,2.761,0,0,0-1.851,1.1V89h-2.074Z" transform="translate(-127.498 -8.31)"/><path class="cls-2" d="M202.039,84.585c0-2.874,2-4.646,4.076-4.646,2.391,0,3.652,1.729,3.652,4.2a5.355,5.355,0,0,1-.09,1.008h-5.615a2.516,2.516,0,0,0,2.608,2.463,3.779,3.779,0,0,0,2.053-.641l.7,1.289a5.488,5.488,0,0,1-3.032.958A4.27,4.27,0,0,1,202.039,84.585Zm5.935-.85c0-1.361-.606-2.189-1.816-2.189a2.219,2.219,0,0,0-2.117,2.189Z" transform="translate(-127.498 -8.31)"/><path class="cls-2" d="M211.744,80.156h1.7l.159,1.2h.057a4.129,4.129,0,0,1,2.9-1.413c1.895,0,2.723,1.283,2.723,3.515V89h-2.074V83.721c0-1.455-.418-2-1.376-2a2.786,2.786,0,0,0-2.017,1.1V89h-2.074Z" transform="translate(-127.498 -8.31)"/><path class="cls-2" d="M222.127,86.019V81.805h-1.261V80.25l1.369-.094.244-2.413H224.2v2.413h2.254v1.649H224.2v4.21c0,1.04.4,1.552,1.253,1.552a2.767,2.767,0,0,0,.922-.2l.353,1.527a5.751,5.751,0,0,1-1.808.324C222.883,89.216,222.127,87.927,222.127,86.019Z" transform="translate(-127.498 -8.31)"/><path class="cls-2" d="M227.253,87.984l.965-1.317a3.9,3.9,0,0,0,2.441.986c.966,0,1.419-.454,1.419-1.058,0-.742-.958-1.074-1.9-1.434-1.159-.435-2.485-1.1-2.485-2.578,0-1.534,1.239-2.644,3.22-2.644A4.76,4.76,0,0,1,233.85,81l-.951,1.274a3.3,3.3,0,0,0-1.937-.771c-.89,0-1.311.426-1.311.98,0,.7.893.965,1.851,1.318,1.2.447,2.535,1.023,2.535,2.672,0,1.52-1.2,2.744-3.435,2.744A5.529,5.529,0,0,1,227.253,87.984Z" transform="translate(-127.498 -8.31)"/><path class="cls-2" d="M777.691,87.491l1.217-1.433a4.626,4.626,0,0,0,3.069,1.343c1.325,0,2.052-.6,2.052-1.52,0-.968-.759-1.278-1.829-1.732l-1.61-.7a3.378,3.378,0,0,1-2.38-3.122c0-1.876,1.656-3.321,3.954-3.321a5.162,5.162,0,0,1,3.63,1.5l-1.073,1.325a3.8,3.8,0,0,0-2.557-1.012c-1.116,0-1.844.523-1.844,1.383,0,.926.9,1.268,1.873,1.668l1.588.666a3.261,3.261,0,0,1,2.38,3.176c0,1.909-1.585,3.5-4.227,3.5A6.071,6.071,0,0,1,777.691,87.491Z" transform="translate(-127.498 -8.31)"/><path class="cls-2" d="M787.541,84.585c0-2.945,2-4.646,4.206-4.646s4.206,1.7,4.206,4.646a4.226,4.226,0,1,1-8.412,0Zm6.28,0c0-1.772-.777-2.953-2.074-2.953s-2.073,1.181-2.073,2.953.777,2.938,2.073,2.938S793.821,86.357,793.821,84.585Z" transform="translate(-127.498 -8.31)"/><path class="cls-2" d="M797.9,86.724V76.281h2.074V86.832c0,.511.23.691.447.691a1.213,1.213,0,0,0,.324-.036L801,89.036a2.911,2.911,0,0,1-1.1.18C798.435,89.216,797.9,88.266,797.9,86.724Z" transform="translate(-127.498 -8.31)"/><path class="cls-2" d="M802.668,85.7V80.156h2.074v5.279c0,1.455.418,2,1.376,2,.778,0,1.289-.36,1.959-1.224V80.156h2.074V89h-1.7l-.158-1.3h-.058a3.6,3.6,0,0,1-2.844,1.52C803.5,89.216,802.668,87.934,802.668,85.7Z" transform="translate(-127.498 -8.31)"/><path class="cls-2" d="M813.094,86.019V81.805h-1.26V80.25l1.368-.094.245-2.413h1.721v2.413h2.254v1.649h-2.254v4.21c0,1.04.4,1.552,1.254,1.552a2.773,2.773,0,0,0,.922-.2l.352,1.527a5.744,5.744,0,0,1-1.807.324C813.85,89.216,813.094,87.927,813.094,86.019Z" transform="translate(-127.498 -8.31)"/><path class="cls-2" d="M819.041,77.434a1.287,1.287,0,1,1,1.281,1.173A1.185,1.185,0,0,1,819.041,77.434Zm.237,2.722h2.075V89h-2.075Z" transform="translate(-127.498 -8.31)"/><path class="cls-2" d="M823.4,84.585c0-2.945,2-4.646,4.206-4.646s4.206,1.7,4.206,4.646a4.226,4.226,0,1,1-8.412,0Zm6.28,0c0-1.772-.778-2.953-2.074-2.953s-2.074,1.181-2.074,2.953.777,2.938,2.074,2.938S829.684,86.357,829.684,84.585Z" transform="translate(-127.498 -8.31)"/><path class="cls-2" d="M833.865,80.156h1.7l.16,1.2h.056a4.134,4.134,0,0,1,2.9-1.413c1.894,0,2.722,1.283,2.722,3.515V89h-2.074V83.721c0-1.455-.418-2-1.375-2a2.79,2.79,0,0,0-2.018,1.1V89h-2.074Z" transform="translate(-127.498 -8.31)"/><path class="cls-1" d="M429.823,184.354a.979.979,0,1,1,.977.913A.912.912,0,0,1,429.823,184.354Zm.181,2.117h1.58v6.881H430Z" transform="translate(-127.498 -8.31)"/><path class="cls-1" d="M433.827,191.032v-3.278h-.96v-1.21l1.042-.073.187-1.877h1.311v1.877h1.718v1.283h-1.718v3.275c0,.81.307,1.207.955,1.207a2.084,2.084,0,0,0,.7-.156l.269,1.188a4.29,4.29,0,0,1-1.377.252C434.4,193.52,433.827,192.517,433.827,191.032Z" transform="translate(-127.498 -8.31)"/><path class="cls-1" d="M437.874,189.917a3.323,3.323,0,0,1,3.106-3.614c1.822,0,2.782,1.344,2.782,3.266a4.23,4.23,0,0,1-.069.785h-4.277a1.935,1.935,0,0,0,1.986,1.917,2.831,2.831,0,0,0,1.564-.5l.538,1a4.12,4.12,0,0,1-2.31.746A3.29,3.29,0,0,1,437.874,189.917Zm4.522-.661c0-1.059-.461-1.7-1.383-1.7a1.709,1.709,0,0,0-1.614,1.7Z" transform="translate(-127.498 -8.31)"/><path class="cls-1" d="M445.268,186.471h1.3l.121,1.227h.044a2.3,2.3,0,0,1,1.915-1.4,1.688,1.688,0,0,1,.762.14l-.274,1.4a2.22,2.22,0,0,0-.692-.113c-.538,0-1.185.376-1.591,1.424v4.2h-1.58Z" transform="translate(-127.498 -8.31)"/><path class="cls-1" d="M449.667,191.5c0-1.474,1.2-2.241,3.961-2.544-.022-.74-.313-1.356-1.224-1.356a3.673,3.673,0,0,0-1.893.678l-.581-1.076a5.177,5.177,0,0,1,2.765-.9c1.685,0,2.513,1.059,2.513,2.975v4.074h-1.294l-.122-.762h-.043a3.229,3.229,0,0,1-2.091.93A1.908,1.908,0,0,1,449.667,191.5Zm3.961.005v-1.546c-1.827.235-2.436.723-2.436,1.417,0,.608.406.874.971.874A2.107,2.107,0,0,0,453.628,191.508Z" transform="translate(-127.498 -8.31)"/><path class="cls-1" d="M457.121,191.032v-3.278h-.961v-1.21l1.043-.073.186-1.877H458.7v1.877h1.717v1.283H458.7v3.275c0,.81.307,1.207.954,1.207a2.09,2.09,0,0,0,.7-.156l.268,1.188a4.289,4.289,0,0,1-1.376.252C457.7,193.52,457.121,192.517,457.121,191.032Z" transform="translate(-127.498 -8.31)"/><path class="cls-1" d="M461.65,184.354a.979.979,0,1,1,.977.913A.912.912,0,0,1,461.65,184.354Zm.181,2.117h1.581v6.881h-1.581Z" transform="translate(-127.498 -8.31)"/><path class="cls-1" d="M464.974,189.917a3.227,3.227,0,1,1,3.2,3.6A3.3,3.3,0,0,1,464.974,189.917Zm4.784,0c0-1.379-.592-2.3-1.58-2.3s-1.58.918-1.58,2.3.592,2.286,1.58,2.286S469.758,191.3,469.758,189.917Z" transform="translate(-127.498 -8.31)"/><path class="cls-1" d="M472.943,186.471h1.3l.121.93h.044a3.122,3.122,0,0,1,2.211-1.1c1.443,0,2.074,1,2.074,2.734v4.315h-1.58v-4.108c0-1.132-.318-1.557-1.048-1.557a2.106,2.106,0,0,0-1.537.857v4.808h-1.58Z" transform="translate(-127.498 -8.31)"/><path class="cls-1" d="M482.976,183.406h1.069l-3.2,12.187h-1.07Z" transform="translate(-127.498 -8.31)"/><path class="cls-1" d="M484.565,189.917a3.368,3.368,0,0,1,3.38-3.614,2.849,2.849,0,0,1,1.97.773l-.768,1.048a1.638,1.638,0,0,0-1.12-.5c-1.086,0-1.838.918-1.838,2.3s.741,2.286,1.789,2.286a2.2,2.2,0,0,0,1.394-.594l.642,1.065a3.289,3.289,0,0,1-2.2.846C485.975,193.52,484.565,192.2,484.565,189.917Z" transform="translate(-127.498 -8.31)"/><path class="cls-1" d="M490.565,189.917a3.227,3.227,0,1,1,3.2,3.6A3.3,3.3,0,0,1,490.565,189.917Zm4.785,0c0-1.379-.593-2.3-1.58-2.3s-1.581.918-1.581,2.3.593,2.286,1.581,2.286S495.35,191.3,495.35,189.917Z" transform="translate(-127.498 -8.31)"/><path class="cls-1" d="M498.452,191.581v-8.124h1.581v8.208c0,.4.175.538.34.538a.909.909,0,0,0,.247-.028l.2,1.2a2.18,2.18,0,0,1-.834.14C498.864,193.52,498.452,192.78,498.452,191.581Z" transform="translate(-127.498 -8.31)"/><path class="cls-1" d="M502.165,191.581v-8.124h1.581v8.208c0,.4.175.538.34.538a.909.909,0,0,0,.247-.028l.2,1.2a2.18,2.18,0,0,1-.834.14C502.577,193.52,502.165,192.78,502.165,191.581Z" transform="translate(-127.498 -8.31)"/><path class="cls-1" d="M505.516,191.5c0-1.474,1.2-2.241,3.962-2.544-.022-.74-.313-1.356-1.224-1.356a3.67,3.67,0,0,0-1.893.678l-.582-1.076a5.183,5.183,0,0,1,2.766-.9c1.684,0,2.513,1.059,2.513,2.975v4.074h-1.3l-.121-.762H509.6a3.227,3.227,0,0,1-2.09.93A1.908,1.908,0,0,1,505.516,191.5Zm3.962.005v-1.546c-1.828.235-2.436.723-2.436,1.417,0,.608.405.874.971.874A2.107,2.107,0,0,0,509.478,191.508Z" transform="translate(-127.498 -8.31)"/><path class="cls-1" d="M514.38,192.629h-.044l-.137.723h-1.246v-9.9h1.581v2.561l-.044,1.142a3.028,3.028,0,0,1,1.945-.857c1.685,0,2.658,1.379,2.658,3.494,0,2.361-1.377,3.723-2.875,3.723A2.685,2.685,0,0,1,514.38,192.629Zm3.089-2.808c0-1.372-.439-2.184-1.465-2.184a2.1,2.1,0,0,0-1.47.773v3.2a2.053,2.053,0,0,0,1.349.573C516.783,192.187,517.469,191.379,517.469,189.821Z" transform="translate(-127.498 -8.31)"/><path class="cls-1" d="M520.231,189.917a3.227,3.227,0,1,1,3.205,3.6A3.3,3.3,0,0,1,520.231,189.917Zm4.785,0c0-1.379-.593-2.3-1.58-2.3s-1.581.918-1.581,2.3.593,2.286,1.581,2.286S525.016,191.3,525.016,189.917Z" transform="translate(-127.498 -8.31)"/><path class="cls-1" d="M528.2,186.471h1.3l.12,1.227h.044a2.3,2.3,0,0,1,1.915-1.4,1.69,1.69,0,0,1,.763.14l-.275,1.4a2.213,2.213,0,0,0-.691-.113c-.538,0-1.185.376-1.591,1.424v4.2H528.2Z" transform="translate(-127.498 -8.31)"/><path class="cls-1" d="M532.6,191.5c0-1.474,1.2-2.241,3.962-2.544-.022-.74-.313-1.356-1.224-1.356a3.67,3.67,0,0,0-1.893.678l-.582-1.076a5.183,5.183,0,0,1,2.766-.9c1.684,0,2.513,1.059,2.513,2.975v4.074h-1.295l-.121-.762h-.044a3.227,3.227,0,0,1-2.09.93A1.908,1.908,0,0,1,532.6,191.5Zm3.962.005v-1.546c-1.828.235-2.436.723-2.436,1.417,0,.608.4.874.971.874A2.107,2.107,0,0,0,536.561,191.508Z" transform="translate(-127.498 -8.31)"/><path class="cls-1" d="M540.053,191.032v-3.278h-.96v-1.21l1.042-.073.187-1.877h1.311v1.877h1.718v1.283h-1.718v3.275c0,.81.307,1.207.955,1.207a2.1,2.1,0,0,0,.7-.156l.268,1.188a4.29,4.29,0,0,1-1.377.252C540.629,193.52,540.053,192.517,540.053,191.032Z" transform="translate(-127.498 -8.31)"/><path class="cls-1" d="M544.583,184.354a.979.979,0,1,1,.977.913A.912.912,0,0,1,544.583,184.354Zm.181,2.117h1.581v6.881h-1.581Z" transform="translate(-127.498 -8.31)"/><path class="cls-1" d="M547.907,189.917a3.227,3.227,0,1,1,3.2,3.6A3.3,3.3,0,0,1,547.907,189.917Zm4.784,0c0-1.379-.592-2.3-1.58-2.3s-1.58.918-1.58,2.3.593,2.286,1.58,2.286S552.691,191.3,552.691,189.917Z" transform="translate(-127.498 -8.31)"/><path class="cls-1" d="M555.876,186.471h1.3l.121.93h.044a3.122,3.122,0,0,1,2.211-1.1c1.443,0,2.074,1,2.074,2.734v4.315h-1.58v-4.108c0-1.132-.318-1.557-1.048-1.557a2.1,2.1,0,0,0-1.536.857v4.808h-1.581Z" transform="translate(-127.498 -8.31)"/></svg>